Coordinates
version=1
nRows=32
nColumns=12
inDegrees=yes

Units are S.I. units (second, meters, Newtons, ...)
Angles are in degrees

endheader
time	SC_y	SC_z	SC_x	AC_y	AC_z	AC_x	GH_y	GH_z	GH_yy	EL_x	PS_y
       0.0              -19.85          2.682           52.9          60.35         -6.652          1.468          134.6          75.18          175.7          104.3          131.3
   0.04561              -19.85          2.681          52.89          60.34          -6.65          1.469          134.6          75.16          175.7          104.3          131.3
   0.09122              -19.85           2.68          52.89          60.34         -6.648          1.471          134.5          75.15          175.7          104.3          131.3
    0.1368              -19.85           2.68          52.88          60.34         -6.645          1.473          134.5          75.14          175.7          104.3          131.3
    0.1824              -19.85          2.679          52.87          60.34         -6.643          1.475          134.5          75.13          175.6          104.3          131.3
    0.2281              -19.84          2.678          52.87          60.34          -6.64          1.477          134.5          75.12          175.6          104.4          131.3
    0.2737              -19.84          2.677          52.86          60.34         -6.637          1.479          134.5           75.1          175.6          104.4          131.3
    0.3193              -19.84          2.676          52.85          60.34         -6.634          1.482          134.4          75.09          175.6          104.4          131.3
    0.3649              -19.84          2.675          52.85          60.34          -6.63          1.484          134.4          75.07          175.5          104.4          131.3
    0.4105              -19.84          2.674          52.84          60.33         -6.626          1.487          134.4          75.05          175.5          104.4          131.3
    0.4561              -19.83          2.673          52.83          60.33         -6.622           1.49          134.3          75.03          175.5          104.4          131.3
    0.5017              -19.83          2.672          52.82          60.33         -6.618          1.493          134.3          75.01          175.5          104.4          131.3
    0.5473              -19.83           2.67          52.81          60.33         -6.614          1.497          134.3          74.99          175.4          104.4          131.3
     0.593              -19.83          2.669           52.8          60.33         -6.609            1.5          134.2          74.97          175.4          104.4          131.3
    0.6386              -19.82          2.667          52.79          60.32         -6.603          1.504          134.2          74.94          175.4          104.4          131.3
    0.6842              -19.82          2.666          52.77          60.32         -6.597          1.509          134.1          74.92          175.3          104.5          131.3
    0.7298              -19.82          2.664          52.76          60.32         -6.591          1.513          134.1          74.89          175.3          104.5          131.3
    0.7754              -19.81          2.662          52.74          60.32         -6.584          1.518          134.0          74.85          175.2          104.5          131.3
     0.821              -19.81           2.66          52.73          60.31         -6.577          1.524          134.0          74.82          175.2          104.5          131.3
    0.8666               -19.8          2.657          52.71          60.31         -6.568           1.53          133.9          74.78          175.1          104.5          131.3
    0.9122               -19.8          2.655          52.69          60.31         -6.559          1.537          133.8          74.74          175.1          104.5          131.3
    0.9578              -19.79          2.652          52.67           60.3         -6.549          1.544          133.8          74.69          175.0          104.6          131.3
     1.003              -19.79          2.648          52.64           60.3         -6.538          1.552          133.7          74.64          174.9          104.6          131.3
     1.049              -19.78          2.645          52.62          60.29         -6.526          1.562          133.6          74.58          174.8          104.6          131.3
     1.095              -19.77          2.641          52.59          60.29         -6.513          1.572          133.5          74.52          174.7          104.7          131.3
      1.14              -19.76          2.637          52.55          60.28         -6.497          1.583          133.3          74.44          174.6          104.7          131.3
     1.186              -19.76          2.632          52.51          60.27          -6.48          1.595          133.2          74.36          174.5          104.7          131.3
     1.232              -19.74          2.626          52.47          60.27         -6.461           1.61          133.1          74.27          174.4          104.8          131.3
     1.277              -19.73           2.62          52.42          60.26          -6.44          1.626          132.9          74.17          174.2          104.8          131.3
     1.323              -19.72          2.613          52.37          60.25         -6.415          1.644          132.7          74.06          174.0          104.9          131.2
     1.368               -19.7          2.604          52.31          60.23         -6.387          1.665          132.5          73.92          173.9          105.0          131.2
     1.414              -19.69          2.595          52.24          60.22         -6.355          1.688          132.2          73.77          173.6          105.0          131.2
